<svg width="24" height="24" viewBox="0 0 24 24" fill="none" xmlns="http://www.w3.org/2000/svg">
<path d="M0.84598 4.74239e-07C0.735602 -5.20991e-05 0.626296 0.0216496 0.524311 0.063865C0.422325 0.10608 0.329659 0.167982 0.25161 0.246031C0.173561 0.32408 0.11166 0.416745 0.0694447 0.518731C0.0272292 0.620717 0.00552753 0.730023 0.00558011 0.8404V16.0569H0.12628C0.12628 16.0569 3.73768 15.9888 5.26908 15.183C6.58265 14.4106 7.71948 13.3711 8.60608 12.1317L9.50908 10.8571L9.79478 10.4509C9.82908 10.4109 9.97688 10.1938 10.0626 10.0681C10.1483 9.9424 10.5207 9.4175 10.8807 8.8917C12.2809 6.95738 14.0742 5.34093 16.143 4.1484C19.4801 2.4342 23.903 2.606 23.903 2.606H23.9711V0.891701C23.9781 0.777178 23.9617 0.662423 23.9227 0.554513C23.8837 0.446602 23.823 0.347826 23.7443 0.264274C23.6657 0.180723 23.5708 0.114169 23.4654 0.0687169C23.3601 0.0232648 23.2465 -0.000121443 23.1318 4.74239e-07H0.84598ZM23.9655 7.9487C23.8947 7.96713 23.822 7.97687 23.7489 7.9777C23.7489 7.9777 20.1435 8.0457 18.5949 8.8571C17.2809 9.62707 16.1435 10.6648 15.2567 11.9029L14.3717 13.183C14.2403 13.3659 14.1147 13.5482 14.0804 13.5882L13.8114 13.971L12.9944 15.1484C12.9944 15.1484 10.8168 18.2917 7.73108 19.8917C4.53108 21.5546 0.34288 21.4456 8.01064e-05 21.4342V23.1484C-0.00145716 23.2597 0.0191449 23.3702 0.0606889 23.4735C0.102233 23.5768 0.16389 23.6708 0.242077 23.75C0.320263 23.8292 0.41342 23.8921 0.516131 23.9351C0.618843 23.978 0.729062 24.0001 0.84038 24H23.1261C23.3488 23.9998 23.5623 23.9112 23.7197 23.7536C23.8771 23.596 23.9655 23.3823 23.9654 23.1596L23.9655 7.9487Z" fill="white"/>
</svg>
